<svg width="465" height="367" viewBox="0 0 465 367" fill="none" xmlns="http://www.w3.org/2000/svg">
<line x1="160" y1="37" x2="465" y2="37" stroke="white" stroke-width="14"/>
<line x1="373.664" y1="213.024" x2="458.664" y2="32.0245" stroke="white" stroke-width="14"/>
<line x1="380.149" y1="209" x2="165" y2="209" stroke="white" stroke-width="14"/>
<line x1="184.362" y1="259.221" x2="98.3618" y2="2.22137" stroke="white" stroke-width="14"/>
<line x1="178.962" y1="263" x2="364.962" y2="262" stroke="white" stroke-width="14"/>
<line x1="105.005" y1="7" y2="7" stroke="white" stroke-width="14"/>
<path d="M235.538 305.951C231.21 297.43 224.026 290.534 215.126 286.357C206.227 282.18 196.121 280.962 186.414 282.895C176.707 284.829 167.954 289.804 161.544 297.03C155.135 304.257 151.437 313.321 151.036 322.784C150.636 332.246 153.556 341.566 159.334 349.263C165.112 356.96 173.416 362.593 182.928 365.269C192.44 367.944 202.615 367.509 211.839 364.032C221.063 360.554 228.806 354.234 233.84 346.075L195.5 324.5L235.538 305.951Z" fill="white"/>
<circle cx="355.5" cy="324.5" r="42.5" fill="#03F62A"/>
<ellipse cx="193.5" cy="303" rx="7.5" ry="6" fill="#03F62A"/>
</svg>
